<?xml version="1.0" encoding="UTF-8"?>
<svg xmlns="http://www.w3.org/2000/svg" xmlns:xlink="http://www.w3.org/1999/xlink" width="92px" height="92px" viewBox="0 0 92 92" version="1.1">
<g id="surface1">
<path style=" stroke:none;fill-rule:nonzero;fill:rgb(0%,0%,0%);fill-opacity:1;" d="M 46.804688 0.0078125 C 26.023438 -0.390625 5.804688 13.449219 0.9375 36.929688 C -4.359375 62.476562 13.445312 88.324219 38.675781 91.714844 C 83.660156 97.761719 110.304688 44.164062 77.796875 13.019531 C 68.730469 4.335938 57.691406 0.21875 46.804688 0.0078125 Z M 22.675781 20.464844 C 23.398438 20.550781 24.519531 20.980469 26.410156 21.640625 C 37.691406 25.566406 43.894531 32.34375 44.40625 41.308594 C 44.664062 45.78125 44.578125 45.890625 42.625 43.675781 C 41.085938 41.933594 35.65625 37.421875 33.511719 36.105469 C 32.195312 35.300781 32.203125 35.320312 33.796875 37.039062 C 37.402344 40.925781 41.683594 48.179688 40.613281 48.589844 C 28.234375 53.316406 16.199219 38.101562 20.6875 23.40625 C 21.382812 21.121094 21.476562 20.316406 22.675781 20.464844 Z M 73.765625 36.5 C 74.085938 36.601562 74.128906 37.347656 74.128906 39.664062 C 74.128906 51.316406 67.230469 62.53125 56.707031 67.980469 C 53.136719 69.828125 43.15625 73.546875 43.167969 73.023438 C 43.277344 68.410156 47.558594 60.289062 52.625 55.097656 C 54.214844 53.464844 54.335938 53.246094 53.25 53.9375 C 49.003906 56.636719 44.21875 61.0625 41.132812 65.144531 L 39.445312 67.378906 L 39.664062 62.789062 C 40.28125 49.96875 50.847656 40.480469 67.574219 37.730469 C 70.316406 37.28125 72.910156 36.761719 73.34375 36.578125 C 73.519531 36.503906 73.660156 36.464844 73.765625 36.5 Z M 73.765625 36.5 "/>
<path style=" stroke:none;fill-rule:nonzero;fill:rgb(0%,0%,0%);fill-opacity:1;" d="M 47.269531 0.09375 C 32.695312 -0.152344 17.359375 6.523438 14.082031 15.816406 C 8.335938 32.105469 13.609375 46.484375 29.761719 58.589844 C 34.652344 62.253906 36.539062 64.714844 40.34375 72.371094 C 44.3125 80.355469 46.859375 84.359375 50.582031 88.480469 C 53.472656 91.675781 53.777344 91.746094 58.597656 90.339844 C 103.613281 77.207031 102.527344 13.734375 57.074219 1.421875 C 53.953125 0.574219 50.628906 0.148438 47.269531 0.09375 Z M 53.96875 12.496094 C 54.8125 12.289062 55.269531 13.382812 56.859375 16.457031 C 60.578125 23.671875 60.289062 29.507812 55.964844 34.453125 C 53.429688 37.347656 51.8125 38.054688 51.363281 36.457031 C 50.65625 33.945312 51.058594 27.320312 52.074219 24.726562 C 53.257812 21.703125 53.273438 21.429688 52.167969 23.234375 C 50.613281 25.769531 49.777344 28.898438 49.496094 33.214844 L 49.21875 37.457031 L 48.003906 36.179688 C 42.171875 30.074219 43.746094 20.710938 51.714844 14.128906 C 52.820312 13.214844 53.464844 12.621094 53.96875 12.496094 Z M 24.125 20.988281 C 29.492188 21.007812 39.238281 27.238281 42.761719 34.359375 C 45.253906 39.390625 45.292969 47.308594 42.8125 43.96875 C 41.898438 42.738281 34.671875 36.746094 33.691406 36.40625 C 33.441406 36.316406 34.289062 37.5625 35.574219 39.167969 C 38.394531 42.691406 41.464844 48.03125 40.957031 48.539062 C 40.394531 49.097656 34.171875 49.308594 32.273438 48.832031 C 22.449219 46.363281 17.378906 35.238281 20.609375 23.234375 C 21.035156 21.664062 22.335938 20.980469 24.125 20.988281 Z M 73.847656 36.09375 C 74.582031 35.863281 74.671875 37.527344 74.195312 41.683594 C 72.464844 56.828125 64.683594 65.886719 48.546875 71.542969 C 46.449219 72.277344 44.378906 73.019531 43.949219 73.191406 C 40.730469 74.46875 45.980469 62.507812 51.402344 56.214844 L 53.707031 53.535156 L 51.6875 55.085938 C 47.21875 58.515625 44.746094 60.832031 42.222656 63.941406 L 39.570312 67.207031 L 39.570312 63.65625 C 39.570312 50.292969 50.648438 40.265625 68.453125 37.503906 C 70.882812 37.128906 73.152344 36.589844 73.496094 36.304688 C 73.625 36.199219 73.742188 36.128906 73.847656 36.09375 Z M 73.847656 36.09375 "/>
</g>
</svg>
