<?xml version="1.0" encoding="UTF-8" standalone="no"?>
<svg
   id="eJK2SjpNRG81"
   viewBox="0 0 205.42638 206.41695"
   shape-rendering="geometricPrecision"
   text-rendering="geometricPrecision"
   version="1.1"
   width="205.42638"
   height="206.41695"
   xmlns:xlink="http://www.w3.org/1999/xlink"
   xmlns="http://www.w3.org/2000/svg"
   xmlns:svg="http://www.w3.org/2000/svg">
  <defs
     id="defs3">
    <linearGradient
       id="linearGradient15">
      <stop
         style="stop-color:#f9f700;stop-opacity:1;"
         offset="0.22198732"
         id="stop15" />
      <stop
         style="stop-color:#2dff02;stop-opacity:0;"
         offset="1"
         id="stop16" />
    </linearGradient>
    <linearGradient
       id="linearGradient5">
      <stop
         style="stop-color:#00740b;stop-opacity:1;"
         offset="1"
         id="stop5" />
      <stop
         style="stop-color:#35da00;stop-opacity:0;"
         offset="1"
         id="stop6" />
    </linearGradient>
    <linearGradient
       xlink:href="#linearGradient5"
       id="linearGradient14"
       gradientUnits="userSpaceOnUse"
       x1="608.09064"
       y1="207.08763"
       x2="786.21082"
       y2="207.08763" />
    <linearGradient
       xlink:href="#linearGradient15"
       id="linearGradient16"
       x1="581.7251"
       y1="208.07755"
       x2="787.15149"
       y2="208.07755"
       gradientUnits="userSpaceOnUse" />
  </defs>
  <g
     transform="translate(-751.18907,331.08892)"
     id="g3"
     style="fill:#000000;fill-opacity:1">
    <g
       transform="translate(169.46397,-435.958)"
       id="g2"
       style="fill:#000000;fill-opacity:1">
      <path
         id="path1"
         style="display:inline;fill:url(#linearGradient16);fill-opacity:1;stroke:none;stroke-opacity:1"
         d="m 686.01885,104.88793 c -46.30472,-0.89455 -91.36172,30.09817 -102.20899,82.67578 -11.80047,57.19791 27.87636,115.07652 84.0918,122.66797 100.23919,13.53651 159.60919,-106.47303 87.17188,-176.20898 -20.20198,-19.4486 -44.79984,-28.6662 -69.05469,-29.13477 z m -53.76563,45.80078 c 1.60603,0.19749 4.1043,1.16248 8.32032,2.63672 25.14219,8.79165 38.9567,23.96389 40.10156,44.04297 0.57077,10.01034 0.38421,10.25685 -3.97071,5.29688 -3.42665,-3.90276 -15.52663,-14.00313 -20.30273,-16.94727 -2.93278,-1.80786 -2.91825,-1.75995 0.63086,2.08594 8.03232,8.70401 17.57064,24.94998 15.18555,25.86523 -27.57568,10.58178 -54.39296,-23.48138 -44.39649,-56.39258 1.55403,-5.11631 1.75493,-6.91703 4.43164,-6.58789 z m 113.83985,35.9043 c 0.71429,0.22905 0.80859,1.90521 0.80859,7.08984 0,26.09473 -15.37341,51.20291 -38.82227,63.40235 -7.95094,4.13653 -30.1889,12.46365 -30.1621,11.29492 0.23728,-10.33331 9.78078,-28.51351 21.07226,-40.14258 3.54368,-3.64963 3.80622,-4.14048 1.39063,-2.59766 -9.46561,6.04564 -20.12736,15.95639 -27,25.09766 l -3.75782,5 0.48828,-10.27539 c 1.36776,-28.7051 24.92012,-49.95451 62.1875,-56.10937 6.10769,-1.00872 11.89102,-2.17104 12.85352,-2.58204 0.39485,-0.1686 0.70331,-0.25408 0.94141,-0.17773 z" />
      <path
         id="path2"
         style="display:inline;mix-blend-mode:normal;fill:url(#linearGradient14);fill-opacity:1"
         d="m 687.0501,105.07934 c -32.46748,-0.54776 -66.64487,14.39307 -73.94922,35.20703 -12.79797,36.46819 -1.05221,68.66332 34.94141,95.77539 10.89327,8.20532 15.09844,13.7086 23.57812,30.85156 8.84446,17.88043 14.51791,26.8496 22.81836,36.07422 6.44153,7.15873 7.11288,7.31527 17.85547,4.16602 100.31083,-29.40677 97.88898,-171.53132 -3.39258,-199.10157 -6.95916,-1.89438 -14.35907,-2.84625 -21.85156,-2.97265 z m 14.93359,27.76953 c 1.87552,-0.46617 2.90046,1.98196 6.43555,8.87109 8.29058,16.15655 7.64367,29.22462 -1.99414,40.29297 -5.64569,6.48367 -9.25091,8.06272 -10.25,4.48828 -1.57123,-5.62133 -0.67537,-20.45422 1.58594,-26.26367 2.63651,-6.77339 2.67457,-7.3873 0.20898,-3.34375 -3.46145,5.67675 -5.32763,12.68018 -5.95313,22.34375 l -0.61523,9.5 -2.71094,-2.85351 c -12.99375,-13.6789 -9.48361,-34.63657 8.27149,-49.38086 2.46404,-2.04621 3.89617,-3.3746 5.02148,-3.6543 z m -66.50195,19.01172 c 11.95809,0.044 33.67573,13.99826 41.5293,29.9414 5.55263,11.27213 5.64293,29.00017 0.10937,21.51563 -2.03501,-2.75249 -18.14069,-16.17011 -20.32617,-16.93359 -0.55655,-0.19442 1.33259,2.58887 4.19922,6.18554 6.28817,7.88959 13.12599,19.85056 11.99414,20.98242 -1.25687,1.25686 -15.11536,1.72971 -19.35156,0.66016 -21.88961,-5.52667 -33.18506,-30.44196 -25.98438,-57.31641 0.94255,-3.51778 3.84405,-5.04983 7.83008,-5.03515 z m 110.79687,33.82812 c 1.63203,-0.51433 1.83204,3.20609 0.77344,12.51563 -3.85558,33.90669 -21.19598,54.1919 -57.15039,66.85742 -4.67499,1.64685 -9.2875,3.30767 -10.25,3.69141 -7.17233,2.85951 4.52691,-23.92076 16.60742,-38.01563 l 5.14258,-6 -4.5,3.47266 c -9.95694,7.68296 -15.47275,12.86886 -21.09766,19.83593 l -5.90234,7.31055 v -7.95508 c 0,-29.9203 24.6812,-52.37669 64.35156,-58.55273 5.41775,-0.84346 10.47504,-2.05211 11.23828,-2.68555 0.29215,-0.24245 0.55397,-0.40113 0.78711,-0.47461 z" />
    </g>
  </g>
</svg>
