<?xml version="1.0" encoding="UTF-8"?>
<svg xmlns="http://www.w3.org/2000/svg" xmlns:xlink="http://www.w3.org/1999/xlink" width="64px" height="64px" viewBox="0 0 64 64" version="1.1">
<g id="surface1">
<path style=" stroke:none;fill-rule:nonzero;fill:rgb(0%,0%,0%);fill-opacity:1;" d="M 32.882812 0.0664062 C 22.746094 -0.105469 12.074219 4.535156 9.796875 11.003906 C 5.800781 22.332031 9.46875 32.335938 20.703125 40.757812 C 24.105469 43.308594 25.417969 45.019531 28.066406 50.34375 C 30.824219 55.898438 32.597656 58.683594 35.1875 61.550781 C 37.199219 63.777344 37.410156 63.824219 40.761719 62.84375 C 72.078125 53.710938 71.324219 9.554688 39.703125 0.988281 C 37.53125 0.398438 35.222656 0.105469 32.882812 0.0664062 Z M 37.542969 8.691406 C 38.128906 8.546875 38.449219 9.308594 39.554688 11.449219 C 42.140625 16.46875 41.941406 20.527344 38.929688 23.96875 C 37.167969 25.980469 36.042969 26.472656 35.730469 25.363281 C 35.238281 23.613281 35.519531 19.007812 36.226562 17.203125 C 37.050781 15.097656 37.0625 14.90625 36.292969 16.164062 C 35.210938 17.925781 34.628906 20.101562 34.433594 23.105469 L 34.242188 26.054688 L 33.394531 25.167969 C 29.335938 20.921875 30.433594 14.410156 35.976562 9.828125 C 36.746094 9.191406 37.191406 8.78125 37.542969 8.691406 Z M 16.78125 14.597656 C 20.515625 14.613281 27.296875 18.949219 29.746094 23.902344 C 31.480469 27.402344 31.507812 32.910156 29.78125 30.585938 C 29.148438 29.730469 24.117188 25.5625 23.4375 25.324219 C 23.261719 25.265625 23.851562 26.128906 24.746094 27.246094 C 26.710938 29.699219 28.84375 33.414062 28.492188 33.765625 C 28.097656 34.15625 23.773438 34.304688 22.449219 33.96875 C 15.617188 32.253906 12.089844 24.511719 14.339844 16.164062 C 14.632812 15.070312 15.539062 14.59375 16.78125 14.597656 Z M 51.371094 25.109375 C 51.882812 24.949219 51.945312 26.105469 51.613281 28.996094 C 50.410156 39.53125 44.996094 45.832031 33.773438 49.769531 C 32.3125 50.28125 30.871094 50.796875 30.570312 50.914062 C 28.332031 51.804688 31.984375 43.484375 35.757812 39.105469 L 37.363281 37.242188 L 35.957031 38.320312 C 32.847656 40.707031 31.128906 42.316406 29.371094 44.480469 L 27.527344 46.753906 L 27.527344 44.28125 C 27.527344 34.984375 35.234375 28.007812 47.617188 26.089844 C 49.308594 25.828125 50.890625 25.453125 51.128906 25.257812 C 51.21875 25.179688 51.300781 25.132812 51.371094 25.109375 Z M 51.371094 25.109375 "/>
<path style=" stroke:none;fill-rule:nonzero;fill:rgb(0%,0%,0%);fill-opacity:1;" d="M 32.558594 0.00390625 C 18.105469 -0.273438 4.039062 9.355469 0.652344 25.691406 C -3.03125 43.460938 9.355469 61.445312 26.902344 63.800781 C 58.199219 68.007812 76.734375 30.722656 54.117188 9.058594 C 47.8125 3.015625 40.132812 0.152344 32.558594 0.00390625 Z M 15.773438 14.234375 C 16.277344 14.296875 17.054688 14.597656 18.371094 15.054688 C 26.222656 17.785156 30.535156 22.5 30.890625 28.738281 C 31.070312 31.847656 31.011719 31.925781 29.652344 30.382812 C 28.582031 29.171875 24.804688 26.03125 23.3125 25.117188 C 22.398438 24.554688 22.402344 24.570312 23.511719 25.765625 C 26.019531 28.46875 28.996094 33.519531 28.25 33.800781 C 19.640625 37.089844 11.269531 26.507812 14.390625 16.28125 C 14.875 14.691406 14.9375 14.132812 15.773438 14.234375 Z M 51.316406 25.390625 C 51.539062 25.460938 51.566406 25.980469 51.566406 27.59375 C 51.566406 35.699219 46.769531 43.5 39.445312 47.289062 C 36.964844 48.574219 30.023438 51.164062 30.03125 50.800781 C 30.105469 47.589844 33.085938 41.941406 36.609375 38.328125 C 37.714844 37.195312 37.796875 37.042969 37.042969 37.519531 C 34.089844 39.398438 30.761719 42.476562 28.613281 45.316406 L 27.441406 46.871094 L 27.59375 43.679688 C 28.019531 34.761719 35.375 28.160156 47.007812 26.246094 C 48.914062 25.933594 50.71875 25.574219 51.019531 25.445312 C 51.144531 25.394531 51.242188 25.367188 51.316406 25.390625 Z M 51.316406 25.390625 "/>
</g>
</svg>
