<?xml version="1.0" encoding="UTF-8"?>
<svg xmlns="http://www.w3.org/2000/svg" xmlns:xlink="http://www.w3.org/1999/xlink" width="32px" height="32px" viewBox="0 0 32 32" version="1.1">
<g id="surface1">
<path style=" stroke:none;fill-rule:nonzero;fill:rgb(0%,0%,0%);fill-opacity:1;" d="M 16.441406 0.03125 C 11.371094 -0.0507812 6.039062 2.269531 4.898438 5.5 C 2.898438 11.167969 4.734375 16.167969 10.351562 20.378906 C 12.050781 21.652344 12.707031 22.507812 14.03125 25.171875 C 15.414062 27.949219 16.296875 29.34375 17.59375 30.777344 C 18.601562 31.886719 18.703125 31.910156 20.382812 31.421875 C 36.039062 26.855469 35.660156 4.777344 19.851562 0.496094 C 18.765625 0.199219 17.609375 0.0507812 16.441406 0.03125 Z M 18.773438 4.347656 C 19.066406 4.273438 19.226562 4.652344 19.777344 5.722656 C 21.070312 8.234375 20.96875 10.265625 19.464844 11.984375 C 18.585938 12.992188 18.019531 13.234375 17.867188 12.679688 C 17.621094 11.808594 17.761719 9.503906 18.113281 8.601562 C 18.523438 7.546875 18.53125 7.453125 18.144531 8.082031 C 17.605469 8.964844 17.3125 10.050781 17.214844 11.550781 L 17.121094 13.027344 L 16.695312 12.585938 C 14.667969 10.460938 15.214844 7.203125 17.988281 4.914062 C 18.371094 4.597656 18.597656 4.390625 18.773438 4.347656 Z M 8.390625 7.300781 C 10.257812 7.304688 13.648438 9.472656 14.875 11.949219 C 15.742188 13.703125 15.753906 16.457031 14.890625 15.292969 C 14.574219 14.867188 12.058594 12.78125 11.71875 12.664062 C 11.632812 12.632812 11.925781 13.066406 12.375 13.625 C 13.355469 14.847656 14.421875 16.707031 14.246094 16.882812 C 14.050781 17.078125 11.886719 17.152344 11.226562 16.984375 C 7.808594 16.125 6.046875 12.257812 7.167969 8.082031 C 7.316406 7.535156 7.769531 7.296875 8.390625 7.300781 Z M 25.6875 12.554688 C 25.941406 12.476562 25.972656 13.050781 25.808594 14.5 C 25.207031 19.765625 22.5 22.917969 16.886719 24.882812 C 16.15625 25.140625 15.4375 25.398438 15.285156 25.457031 C 14.167969 25.902344 15.992188 21.742188 17.878906 19.550781 L 18.679688 18.621094 L 17.980469 19.160156 C 16.425781 20.351562 15.5625 21.160156 14.683594 22.242188 L 13.765625 23.375 L 13.765625 22.140625 C 13.765625 17.492188 17.617188 14.003906 23.808594 13.046875 C 24.65625 12.914062 25.445312 12.726562 25.5625 12.628906 C 25.609375 12.589844 25.648438 12.566406 25.6875 12.554688 Z M 25.6875 12.554688 "/>
<path style=" stroke:none;fill-rule:nonzero;fill:rgb(0%,0%,0%);fill-opacity:1;" d="M 16.28125 0.00390625 C 9.050781 -0.136719 2.019531 4.679688 0.324219 12.847656 C -1.515625 21.730469 4.675781 30.722656 13.453125 31.902344 C 29.097656 34.003906 38.367188 15.363281 27.058594 4.527344 C 23.90625 1.507812 20.066406 0.0742188 16.28125 0.00390625 Z M 7.886719 7.117188 C 8.136719 7.148438 8.527344 7.296875 9.1875 7.527344 C 13.109375 8.894531 15.265625 11.25 15.445312 14.367188 C 15.535156 15.925781 15.503906 15.960938 14.824219 15.191406 C 14.292969 14.585938 12.402344 13.015625 11.65625 12.558594 C 11.199219 12.277344 11.203125 12.285156 11.753906 12.882812 C 13.007812 14.234375 14.496094 16.757812 14.125 16.902344 C 9.820312 18.542969 5.636719 13.253906 7.195312 8.140625 C 7.4375 7.347656 7.46875 7.066406 7.886719 7.117188 Z M 25.65625 12.695312 C 25.769531 12.730469 25.785156 12.992188 25.785156 13.796875 C 25.785156 17.851562 23.382812 21.75 19.722656 23.644531 C 18.484375 24.289062 15.011719 25.582031 15.015625 25.398438 C 15.050781 23.792969 16.542969 20.96875 18.304688 19.164062 C 18.859375 18.597656 18.898438 18.519531 18.523438 18.761719 C 17.042969 19.699219 15.378906 21.238281 14.308594 22.660156 L 13.71875 23.4375 L 13.796875 21.839844 C 14.011719 17.378906 17.6875 14.078125 23.503906 13.125 C 24.457031 12.96875 25.359375 12.785156 25.511719 12.722656 C 25.570312 12.695312 25.621094 12.683594 25.65625 12.695312 Z M 25.65625 12.695312 "/>
</g>
</svg>
